<?xml version="1.0" standalone="no"?>
<!DOCTYPE svg PUBLIC "-//W3C//DTD SVG 20010904//EN"
 "http://www.w3.org/TR/2001/REC-SVG-20010904/DTD/svg10.dtd">
<svg version="1.0" xmlns="http://www.w3.org/2000/svg"
 width="64.000000pt" height="64.000000pt" viewBox="0 0 64.000000 64.000000"
 preserveAspectRatio="xMidYMid meet">

<g transform="translate(0.000000,64.000000) scale(0.100000,-0.100000)"
fill="#000000" stroke="none">
<path d="M150 620 c-21 -21 -28 -84 -10 -95 6 -4 10 9 10 32 0 22 5 44 12 51
19 19 52 14 63 -10 9 -21 16 -23 95 -23 79 0 86 2 95 23 11 24 44 29 63 10 17
-17 17 -559 0 -576 -17 -17 -299 -17 -316 0 -9 9 -12 72 -12 221 0 136 -3 206
-10 202 -6 -4 -10 -85 -10 -211 0 -262 -14 -244 190 -244 137 0 152 2 170 20
19 19 20 33 20 300 0 267 -1 281 -20 300 -18 18 -33 20 -170 20 -137 0 -152
-2 -170 -20z m250 -15 c0 -12 -15 -15 -74 -15 -69 0 -95 8 -79 24 3 3 39 6 80
6 58 0 73 -3 73 -15z"/>
<path d="M130 490 c0 -5 5 -10 10 -10 6 0 10 5 10 10 0 6 -4 10 -10 10 -5 0
-10 -4 -10 -10z"/>
<path d="M261 432 c-40 -21 -71 -73 -71 -117 0 -64 63 -125 130 -125 67 0 130
61 130 125 0 67 -66 135 -130 135 -14 0 -41 -8 -59 -18z m69 -41 c0 -5 9 -11
20 -14 11 -3 20 -12 20 -20 0 -12 -8 -14 -35 -10 -22 3 -35 2 -35 -5 0 -6 15
-12 33 -14 43 -4 50 -41 13 -75 l-25 -23 -26 22 c-14 12 -25 28 -25 35 0 15
16 17 25 3 7 -12 45 -14 45 -2 0 4 -15 12 -32 17 -26 8 -34 16 -36 38 -3 22 1
30 17 34 12 3 21 9 21 14 0 5 5 9 10 9 6 0 10 -4 10 -9z"/>
</g>
</svg>
